<svg width="28" height="25" viewBox="0 0 28 25" fill="none" xmlns="http://www.w3.org/2000/svg">
<path d="M12.4444 0.111084C5.54815 0.111084 0 5.65923 0 12.5555C0 19.4518 5.54815 25 12.4444 25C19.3407 25 24.8889 19.4518 24.8889 12.5555C24.8889 5.65923 19.3407 0.111084 12.4444 0.111084Z" fill="#326BA2"/>
<path d="M14.0512 11.674C13.7401 11.5703 13.5845 11.2074 13.6882 10.8963L15.1401 6.3333C15.2438 6.02219 15.5549 5.86663 15.866 5.97034C16.1771 6.07404 16.3327 6.437 16.229 6.74811L14.7771 11.3111C14.6734 11.6222 14.3623 11.7777 14.0512 11.674Z" fill="white"/>
<path d="M17.577 10.8444H15.3992L15.1918 11.4666C15.0363 12.037 14.4659 12.2963 13.9474 12.1407C13.4289 11.9852 13.1696 11.4148 13.3252 10.8963H10.577L10.4215 11.4666C10.2659 12.037 9.69553 12.3481 9.17701 12.1926C8.65849 12.037 8.34738 11.4666 8.50294 10.8963H6.48071C6.11775 10.8963 5.80664 11.0518 5.80664 11.4148C5.80664 11.7777 6.0659 12.0889 6.42886 12.1407H6.58442L7.5696 16.6V16.6518C7.5696 16.6518 7.5696 17.6889 8.71034 17.7407C10.7844 17.7407 12.9622 17.7926 15.0363 17.8444C16.177 17.8444 16.2289 16.8074 16.2289 16.8074V16.7555L17.3178 12.2963H17.4733C17.8363 12.2963 18.1474 11.9852 18.1474 11.6222C18.2511 11.1555 17.94 10.8444 17.577 10.8444ZM9.48812 16.3926C9.48812 16.6 9.33257 16.8074 9.12516 16.8074C8.91775 16.8074 8.7622 16.6 8.7622 16.3926L8.81405 13.7481C8.81405 13.5407 8.9696 13.3333 9.17701 13.3333C9.38442 13.3333 9.53997 13.5407 9.53997 13.7481L9.48812 16.3926ZM11.4066 16.3926C11.4066 16.6 11.2511 16.8074 11.0437 16.8074C10.8363 16.8074 10.6807 16.6 10.6807 16.3926L10.7326 13.7481C10.7326 13.5407 10.8881 13.3333 11.0955 13.3333C11.3029 13.3333 11.4585 13.5407 11.4585 13.7481L11.4066 16.3926ZM13.3252 16.4444C13.3252 16.6518 13.1696 16.8592 12.9622 16.8592C12.7548 16.8592 12.5992 16.6518 12.5992 16.4444L12.6511 13.8C12.6511 13.5926 12.8066 13.3852 13.014 13.3852C13.2215 13.3852 13.377 13.5926 13.377 13.8L13.3252 16.4444ZM15.1918 16.4444C15.1918 16.6518 15.0363 16.8592 14.8289 16.8592C14.6215 16.8592 14.4659 16.6518 14.4659 16.4444L14.5178 13.8C14.5178 13.5926 14.6733 13.3852 14.8807 13.3852C15.0881 13.3852 15.2437 13.5926 15.2437 13.8L15.1918 16.4444Z" fill="white"/>
<path d="M9.28168 11.7259C8.97056 11.6222 8.81501 11.3111 8.91871 11L10.215 6.38515C10.3187 6.07404 10.6298 5.86663 10.9409 5.97033C11.252 6.07403 11.4076 6.38515 11.3039 6.69626L10.0076 11.3111C9.9039 11.6222 9.59279 11.8296 9.28168 11.7259Z" fill="white"/>
<circle cx="23.5" cy="4.5" r="4.25" fill="#326BA2" stroke="white" stroke-width="0.5"/>
<path d="M25.6429 3.96429H24.0357V2.35714C24.0357 2.15993 23.8758 2 23.6786 2H23.3214C23.1242 2 22.9643 2.15993 22.9643 2.35714V3.96429H21.3571C21.1599 3.96429 21 4.12422 21 4.32143V4.67857C21 4.87578 21.1599 5.03571 21.3571 5.03571H22.9643V6.64286C22.9643 6.84007 23.1242 7 23.3214 7H23.6786C23.8758 7 24.0357 6.84007 24.0357 6.64286V5.03571H25.6429C25.8401 5.03571 26 4.87578 26 4.67857V4.32143C26 4.12422 25.8401 3.96429 25.6429 3.96429Z" fill="white"/>
</svg>
