<svg width="40" height="27" viewBox="0 0 40 27" fill="none" xmlns="http://www.w3.org/2000/svg">
<path d="M33.5347 22.7391C33.5347 23.1489 33.2153 23.4442 32.7569 23.4442C32.2847 23.4442 31.9792 23.1308 31.9792 22.7391C31.9792 22.3473 32.2847 22.0339 32.7569 22.0339C33.2153 22.0339 33.5347 22.3473 33.5347 22.7391ZM11.9514 22.0339C11.4583 22.0339 11.1736 22.3473 11.1736 22.7391C11.1736 23.1308 11.4583 23.4442 11.9514 23.4442C12.4028 23.4442 12.7083 23.1489 12.7083 22.7391C12.7014 22.3473 12.4028 22.0339 11.9514 22.0339ZM20.1111 22.0158C19.7361 22.0158 19.5069 22.2268 19.4514 22.5402H20.7778C20.7153 22.1967 20.4722 22.0158 20.1111 22.0158ZM27.5972 22.0339C27.125 22.0339 26.8403 22.3473 26.8403 22.7391C26.8403 23.1308 27.125 23.4442 27.5972 23.4442C28.0694 23.4442 28.375 23.1489 28.375 22.7391C28.375 22.3473 28.0694 22.0339 27.5972 22.0339ZM34.9514 23.6069C34.9514 23.625 34.9722 23.6371 34.9722 23.6732C34.9722 23.6913 34.9514 23.7033 34.9514 23.7395C34.9306 23.7576 34.9306 23.7696 34.9167 23.7877C34.8958 23.8058 34.8819 23.8179 34.8403 23.8179C34.8194 23.8359 34.8056 23.8359 34.7639 23.8359C34.7431 23.8359 34.7292 23.8359 34.6875 23.8179C34.6667 23.8179 34.6528 23.7998 34.6319 23.7877C34.6111 23.7696 34.5972 23.7576 34.5972 23.7395C34.5764 23.7094 34.5764 23.6913 34.5764 23.6732C34.5764 23.6431 34.5764 23.625 34.5972 23.6069C34.5972 23.5768 34.6181 23.5587 34.6319 23.5406C34.6528 23.5225 34.6667 23.5225 34.6875 23.5105C34.7222 23.4924 34.7431 23.4924 34.7639 23.4924C34.7986 23.4924 34.8194 23.4924 34.8403 23.5105C34.875 23.5286 34.8958 23.5286 34.9167 23.5406C34.9375 23.5527 34.9306 23.5768 34.9514 23.6069ZM34.7986 23.6913C34.8333 23.6913 34.8333 23.6732 34.8542 23.6732C34.875 23.6551 34.875 23.6431 34.875 23.625C34.875 23.6069 34.875 23.5949 34.8542 23.5768C34.8333 23.5768 34.8194 23.5587 34.7778 23.5587H34.6667V23.7696H34.7222V23.6853H34.7431L34.8194 23.7696H34.875L34.7986 23.6913ZM40 2.89286V24.1071C40 25.7042 38.5069 27 36.6667 27H3.33333C1.49306 27 0 25.7042 0 24.1071V2.89286C0 1.29576 1.49306 0 3.33333 0H36.6667C38.5069 0 40 1.29576 40 2.89286ZM4.44444 11.3063C4.44444 15.9167 8.75694 19.6533 14.0625 19.6533C15.9514 19.6533 17.8056 19.1592 19.375 18.2612C14.3125 14.6873 14.3472 7.9433 19.375 4.36942C17.8056 3.4654 15.9514 2.97723 14.0625 2.97723C8.75694 2.97121 4.44444 6.71384 4.44444 11.3063ZM20 17.8634C24.8958 14.5487 24.875 8.08795 20 4.75513C15.125 8.08795 15.1042 14.5547 20 17.8634ZM10.1181 22.4618C10.1181 21.9375 9.72222 21.594 9.09722 21.5759C8.77778 21.5759 8.4375 21.6603 8.20833 21.9676C8.04167 21.7205 7.75694 21.5759 7.36111 21.5759C7.09722 21.5759 6.83333 21.6603 6.625 21.9013V21.6362H6.05556V23.848H6.625C6.625 22.7089 6.45139 22.0279 7.25 22.0279C7.95833 22.0279 7.81944 22.6426 7.81944 23.848H8.36806C8.36806 22.7451 8.19444 22.0279 8.99306 22.0279C9.70139 22.0279 9.5625 22.6306 9.5625 23.848H10.1319V22.4618H10.1181ZM13.2361 21.6362H12.6875V21.9013C12.5 21.7025 12.2361 21.5759 11.875 21.5759C11.1597 21.5759 10.6111 22.0701 10.6111 22.7391C10.6111 23.4141 11.1597 23.9022 11.875 23.9022C12.2361 23.9022 12.5 23.7877 12.6875 23.5768V23.854H13.2361V21.6362ZM16.0486 23.179C16.0486 22.275 14.4583 22.6848 14.4583 22.2629C14.4583 21.9194 15.2847 21.9737 15.7431 22.1967L15.9722 21.8049C15.3194 21.4373 13.875 21.4433 13.875 22.2991C13.875 23.1609 15.4653 22.7993 15.4653 23.2031C15.4653 23.5828 14.5278 23.5527 14.0278 23.2513L13.7847 23.631C14.5625 24.0891 16.0486 23.9926 16.0486 23.179ZM18.5069 23.7395L18.3542 23.3297C18.0903 23.4563 17.5069 23.5949 17.5069 23.0826V22.0821H18.4167V21.6362H17.5069V20.9612H16.9375V21.6362H16.4097V22.0761H16.9375V23.0826C16.9375 24.1433 18.1389 23.9504 18.5069 23.7395ZM19.4306 22.9319H21.3403C21.3403 21.9556 20.8264 21.5699 20.1319 21.5699C19.3958 21.5699 18.8681 22.046 18.8681 22.733C18.8681 23.9685 20.4375 24.1734 21.2153 23.5888L20.9514 23.2272C20.4097 23.6129 19.5903 23.5768 19.4306 22.9319ZM23.5347 21.6362C23.2153 21.5156 22.7292 21.5277 22.4792 21.9013V21.6362H21.9097V23.848H22.4792V22.6004C22.4792 21.9013 23.1389 21.9917 23.3681 22.0942L23.5347 21.6362ZM24.2708 22.7391C24.2708 22.052 25.0764 21.829 25.7083 22.2328L25.9722 21.8411C25.1667 21.2926 23.7014 21.594 23.7014 22.7451C23.7014 23.9384 25.2569 24.1795 25.9722 23.6491L25.7083 23.2574C25.0694 23.6491 24.2708 23.4141 24.2708 22.7391ZM28.9028 21.6362H28.3333V21.9013C27.7569 21.2384 26.2569 21.6121 26.2569 22.7391C26.2569 23.8962 27.8125 24.2277 28.3333 23.5768V23.854H28.9028V21.6362ZM31.2431 21.6362C31.0764 21.5638 30.4792 21.4614 30.1875 21.9013V21.6362H29.6389V23.848H30.1875V22.6004C30.1875 21.9375 30.8125 21.9797 31.0764 22.0942L31.2431 21.6362ZM34.0417 20.7382H33.4931V21.9013C32.9236 21.2444 31.4167 21.594 31.4167 22.7391C31.4167 23.9083 32.9792 24.2217 33.4931 23.5768V23.854H34.0417V20.7382ZM34.5694 16.2121V16.4893H34.625V16.2121H34.7569V16.1638H34.4375V16.2121H34.5694ZM35.0278 23.6732C35.0278 23.6431 35.0278 23.6069 35.0069 23.5768C34.9861 23.5587 34.9722 23.5286 34.9514 23.5105C34.9306 23.4924 34.8958 23.4804 34.875 23.4623C34.8403 23.4623 34.7986 23.4442 34.7639 23.4442C34.7431 23.4442 34.7083 23.4623 34.6667 23.4623C34.6319 23.4804 34.6111 23.4924 34.5903 23.5105C34.5556 23.5286 34.5347 23.5587 34.5347 23.5768C34.5139 23.6069 34.5139 23.6431 34.5139 23.6732C34.5139 23.6913 34.5139 23.7214 34.5347 23.7576C34.5347 23.7757 34.5556 23.8058 34.5903 23.8239C34.6111 23.842 34.625 23.854 34.6667 23.8721C34.7014 23.8902 34.7431 23.8902 34.7639 23.8902C34.7986 23.8902 34.8403 23.8902 34.875 23.8721C34.8958 23.854 34.9306 23.842 34.9514 23.8239C34.9722 23.8058 34.9861 23.7757 35.0069 23.7576C35.0278 23.7214 35.0278 23.6913 35.0278 23.6732ZM35.25 16.1578H35.1528L35.0417 16.3688L34.9306 16.1578H34.8333V16.4833H34.8889V16.2362L35 16.4471H35.0764L35.1736 16.2362V16.4833H35.25V16.1578ZM35.5556 11.3063C35.5556 6.71384 31.2431 2.97121 25.9375 2.97121C24.0486 2.97121 22.1944 3.4654 20.625 4.36339C25.6319 7.93728 25.7083 14.6993 20.625 18.2551C22.1944 19.1592 24.0625 19.6473 25.9375 19.6473C31.2431 19.6533 35.5556 15.9167 35.5556 11.3063Z" fill="#326BA2"/>
</svg>
