<svg width="20" height="20" viewBox="0 0 20 20" fill="none" xmlns="http://www.w3.org/2000/svg">
<path d="M7.61339 2.25118e-08C9.06984 -3.13105e-05 10.4957 0.417523 11.7219 1.20312C12.948 1.98872 13.923 3.10939 14.5311 4.43216C15.1392 5.75494 15.3549 7.2243 15.1526 8.66591C14.9503 10.1075 14.3385 11.4609 13.3897 12.5654L20 19.1724L19.172 20L12.5605 13.3919C11.6281 14.1888 10.5168 14.7488 9.3212 15.024C8.12562 15.2991 6.88121 15.2814 5.69394 14.9724C4.50668 14.6633 3.41175 14.0719 2.5024 13.2488C1.59305 12.4256 0.896218 11.3949 0.471261 10.2446C0.0463033 9.09423 -0.0941927 7.85826 0.0617384 6.64194C0.21767 5.42562 0.665408 4.26498 1.36682 3.25889C2.06823 2.25279 3.00254 1.43103 4.09016 0.863611C5.17779 0.296187 6.38651 -9.42957e-05 7.61339 2.25118e-08ZM7.61339 1.17062C5.90497 1.17062 4.26652 1.84895 3.05849 3.05638C1.85045 4.26381 1.17179 5.90145 1.17179 7.60901C1.17179 9.31658 1.85045 10.9542 3.05849 12.1616C4.26652 13.3691 5.90497 14.0474 7.61339 14.0474C9.32181 14.0474 10.9603 13.3691 12.1683 12.1616C13.3763 10.9542 14.055 9.31658 14.055 7.60901C14.055 5.90145 13.3763 4.26381 12.1683 3.05638C10.9603 1.84895 9.32181 1.17062 7.61339 1.17062Z" fill="#595959"/>
</svg>
