<svg width="40" height="40" viewBox="0 0 40 40" fill="none" xmlns="http://www.w3.org/2000/svg">
<path d="M20.0003 19.1667C16.5003 19.1667 13.667 22 13.667 25.5V26.5833C13.667 27.25 14.167 27.6667 14.7503 27.6667H25.2503C25.8337 27.6667 26.3337 27.1667 26.3337 26.5833V25.5C26.3337 22 23.5003 19.1667 20.0003 19.1667Z" fill="#326BA2"/>
<path d="M20 17.1667C21.75 17.1667 23.25 15.75 23.25 13.9167C23.25 12.0833 21.8333 10.6667 20 10.6667C18.1667 10.6667 16.75 12.0833 16.75 13.9167C16.75 15.75 18.25 17.1667 20 17.1667Z" fill="#326BA2"/>
<path d="M20 0C8.91667 0 0 8.91667 0 20C0 31.0833 8.91667 40 20 40C31.0833 40 40 31.0833 40 20C40 8.91667 31.0833 0 20 0ZM28.3333 26.5833C28.3333 28.3333 26.9167 29.6667 25.25 29.6667H14.75C13.0833 29.6667 11.6667 28.3333 11.6667 26.5833V25.5C11.6667 22.0833 13.6667 19.1667 16.5833 17.9167C15.5 17 14.75 15.5833 14.75 14C14.75 11.1667 17.0833 8.83333 19.9167 8.83333C22.75 8.83333 25.0833 11.1667 25.0833 14C25.0833 15.5833 24.4167 17 23.25 17.9167C26.1667 19.25 28.1667 22.1667 28.1667 25.5V26.5833H28.3333Z" fill="#326BA2"/>
</svg>
