<svg width="40" height="27" viewBox="0 0 40 27" fill="none" xmlns="http://www.w3.org/2000/svg">
<path d="M32.6458 12.0114C32.6458 12.0114 33.1736 14.2533 33.2917 14.7234H30.9722C31.2014 14.1871 32.0833 12.1018 32.0833 12.1018C32.0694 12.1199 32.3125 11.5533 32.4514 11.2038L32.6458 12.0114ZM40 2.89286V24.1071C40 25.7042 38.5069 27 36.6667 27H3.33333C1.49306 27 0 25.7042 0 24.1071V2.89286C0 1.29576 1.49306 0 3.33333 0H36.6667C38.5069 0 40 1.29576 40 2.89286ZM10.5903 18.0321L14.9792 8.67857H12.0278L9.29861 15.067L9 13.7712L8.02778 9.46808C7.86806 8.87143 7.375 8.70268 6.76389 8.67857H2.27083L2.22222 8.8654C3.31944 9.10647 4.29861 9.45603 5.15278 9.89598L7.63889 18.0321H10.5903ZM17.1458 18.0442L18.8958 8.67857H16.1042L14.3611 18.0442H17.1458ZM26.8611 14.9826C26.875 13.9158 26.125 13.1022 24.5208 12.4333C23.5417 12.0054 22.9444 11.7161 22.9444 11.2761C22.9583 10.8783 23.4514 10.4685 24.5486 10.4685C25.4583 10.4504 26.125 10.6373 26.625 10.8241L26.875 10.9266L27.2569 8.90156C26.7083 8.71473 25.8333 8.5038 24.7569 8.5038C22 8.5038 20.0625 9.78147 20.0486 11.6016C20.0278 12.9455 21.4375 13.6929 22.4931 14.1449C23.5694 14.6029 23.9375 14.9042 23.9375 15.308C23.9236 15.9348 23.0625 16.2241 22.2639 16.2241C21.1528 16.2241 20.5556 16.0734 19.6458 15.7239L19.2778 15.5732L18.8889 17.6766C19.5417 17.9357 20.75 18.1647 22 18.1768C24.9306 18.1828 26.8403 16.9232 26.8611 14.9826ZM36.6667 18.0442L34.4167 8.67857H32.2569C31.5903 8.67857 31.0833 8.84732 30.7986 9.45603L26.6528 18.0442H29.5833C29.5833 18.0442 30.0625 16.8871 30.1667 16.64H33.75C33.8333 16.9714 34.0833 18.0442 34.0833 18.0442H36.6667Z" fill="#326BA2"/>
</svg>
