<svg width="40" height="40" viewBox="0 0 40 40" fill="none" xmlns="http://www.w3.org/2000/svg">
<path d="M20 0C8.91667 0 0 8.91667 0 20C0 31.0833 8.91667 40 20 40C31.0833 40 40 31.0833 40 20C40 8.91667 31.0833 0 20 0Z" fill="#326BA2"/>
<path d="M22.583 18.5833C22.083 18.4167 21.833 17.8333 21.9997 17.3333L24.333 10C24.4997 9.5 24.9997 9.24999 25.4997 9.41665C25.9997 9.58332 26.2497 10.1667 26.083 10.6667L23.7497 18C23.583 18.5 23.083 18.75 22.583 18.5833Z" fill="white"/>
<path d="M28.2497 17.25H24.7497L24.4163 18.25C24.1663 19.1667 23.2497 19.5833 22.4163 19.3333C21.583 19.0833 21.1663 18.1667 21.4163 17.3333H16.9997L16.7497 18.25C16.4997 19.1667 15.583 19.6667 14.7497 19.4167C13.9163 19.1667 13.4163 18.25 13.6663 17.3333H10.4163C9.83301 17.3333 9.33301 17.5833 9.33301 18.1667C9.33301 18.75 9.74967 19.25 10.333 19.3333H10.583L12.1663 26.5V26.5833C12.1663 26.5833 12.1663 28.25 13.9997 28.3333C17.333 28.3333 20.833 28.4167 24.1663 28.5C25.9997 28.5 26.083 26.8333 26.083 26.8333V26.75L27.833 19.5833H28.083C28.6663 19.5833 29.1663 19.0833 29.1663 18.5C29.333 17.75 28.833 17.25 28.2497 17.25ZM15.2497 26.1667C15.2497 26.5 14.9997 26.8333 14.6663 26.8333C14.333 26.8333 14.083 26.5 14.083 26.1667L14.1663 21.9167C14.1663 21.5833 14.4163 21.25 14.7497 21.25C15.083 21.25 15.333 21.5833 15.333 21.9167L15.2497 26.1667ZM18.333 26.1667C18.333 26.5 18.083 26.8333 17.7497 26.8333C17.4163 26.8333 17.1663 26.5 17.1663 26.1667L17.2497 21.9167C17.2497 21.5833 17.4997 21.25 17.833 21.25C18.1663 21.25 18.4163 21.5833 18.4163 21.9167L18.333 26.1667ZM21.4163 26.25C21.4163 26.5833 21.1663 26.9167 20.833 26.9167C20.4997 26.9167 20.2497 26.5833 20.2497 26.25L20.333 22C20.333 21.6667 20.583 21.3333 20.9163 21.3333C21.2497 21.3333 21.4997 21.6667 21.4997 22L21.4163 26.25ZM24.4163 26.25C24.4163 26.5833 24.1663 26.9167 23.833 26.9167C23.4997 26.9167 23.2497 26.5833 23.2497 26.25L23.333 22C23.333 21.6667 23.583 21.3333 23.9163 21.3333C24.2497 21.3333 24.4997 21.6667 24.4997 22L24.4163 26.25Z" fill="white"/>
<path d="M14.917 18.6667C14.417 18.5 14.167 18.0001 14.3336 17.5001L16.417 10.0834C16.5836 9.58338 17.0836 9.25004 17.5836 9.41671C18.0836 9.58337 18.3336 10.0834 18.167 10.5834L16.0836 18C15.917 18.5 15.417 18.8334 14.917 18.6667Z" fill="white"/>
</svg>
