<svg width="28" height="28" viewBox="0 0 28 28" fill="none" xmlns="http://www.w3.org/2000/svg">
<path d="M18.8955 13.9766L26.2036 6.66846C27.2811 5.59098 27.2811 3.85765 26.2036 2.78017L25.2198 1.79639C24.1423 0.718912 22.409 0.718912 21.3315 1.79639L13.9766 9.1045L6.66846 1.79639C5.59098 0.718912 3.85765 0.718912 2.78017 1.79639L1.79639 2.78017C0.718912 3.85765 0.718912 5.59098 1.79639 6.66846L9.1045 13.9766L1.79639 21.3315C0.718912 22.409 0.718912 24.1423 1.79639 25.2198L2.78017 26.2036C3.85765 27.2811 5.59098 27.2811 6.66846 26.2036L13.9766 18.8955L21.2847 26.2036C22.3622 27.2811 24.0955 27.2811 25.173 26.2036L26.1568 25.2198C27.2342 24.1423 27.2342 22.409 26.1568 21.3315L18.8955 13.9766Z" fill="#595959"/>
</svg>
