<svg width="40" height="40" viewBox="0 0 40 40" fill="none" xmlns="http://www.w3.org/2000/svg">
<circle cx="20" cy="20" r="20" fill="#326BA2"/>
<path d="M20.0274 7.56763C13.0076 7.56763 7.56738 12.6983 7.56738 19.6282C7.56738 23.2528 9.05677 26.3852 11.4811 28.5489C11.8997 28.9254 11.8135 29.1435 11.8846 31.4682C11.8903 31.631 11.9356 31.79 12.0168 31.9313C12.0979 32.0726 12.2124 32.1918 12.3502 32.2787C12.4881 32.3656 12.6451 32.4174 12.8075 32.4297C12.97 32.4419 13.133 32.4142 13.2823 32.349C15.9347 31.1809 15.9688 31.0887 16.4185 31.211C24.103 33.3261 32.4322 28.4081 32.4322 19.6282C32.4322 12.6983 27.0477 7.56763 20.0274 7.56763ZM27.5089 16.8488L23.8494 22.6427C23.7112 22.8606 23.5295 23.0476 23.3156 23.1919C23.1018 23.3363 22.8605 23.4349 22.6068 23.4817C22.353 23.5284 22.0924 23.5222 21.8412 23.4635C21.5899 23.4048 21.3536 23.2949 21.1468 23.1405L18.2352 20.9612C18.1051 20.8636 17.9467 20.8108 17.784 20.8108C17.6213 20.8108 17.463 20.8636 17.3329 20.9612L13.4041 23.9412C12.8797 24.3387 12.1929 23.7106 12.5464 23.1556L16.2059 17.3617C16.3441 17.1437 16.5257 16.9567 16.7396 16.8123C16.9534 16.6679 17.1947 16.5692 17.4485 16.5225C17.7022 16.4758 17.9629 16.4819 18.2141 16.5407C18.4654 16.5994 18.7017 16.7094 18.9085 16.8639L21.8191 19.0426C21.9492 19.1403 22.1075 19.193 22.2702 19.193C22.4329 19.193 22.5913 19.1403 22.7214 19.0426L26.6522 16.0657C27.1755 15.6657 27.8623 16.2933 27.5089 16.8488Z" fill="white"/>
</svg>
