<svg width="12" height="13" viewBox="0 0 12 13" fill="none" xmlns="http://www.w3.org/2000/svg">
<path d="M8.49168 6.90138L7.58343 7.78211C7.19811 7.56193 6.45499 7.09404 5.65682 6.29587C4.85866 5.49771 4.39077 4.75459 4.17058 4.36927L5.05132 3.48853C5.2715 3.26835 5.2715 2.88303 5.05132 2.63532L2.60178 0.18578C2.38159 -0.0619266 1.99627 -0.0619266 1.74856 0.18578L0.592602 1.36927C-0.012903 1.97477 -0.178041 2.91055 0.20728 3.68119C0.757739 4.86468 1.80361 6.62615 3.5926 8.41514C5.38159 10.2041 7.14306 11.25 8.32655 11.828C8.60178 11.9656 8.90453 12.0206 9.20728 12.0206C9.73022 12.0206 10.2532 11.828 10.6385 11.4151L11.822 10.2317C12.0421 10.0115 12.0421 9.62615 11.822 9.37844L9.3449 6.87385C9.09719 6.68119 8.71187 6.65367 8.49168 6.90138ZM9.9504 10.7546C9.62012 11.0849 9.15224 11.1674 8.73939 10.9748C7.63847 10.4243 5.95957 9.43349 4.25315 7.75459C2.57425 6.04817 1.58343 4.36927 1.06049 3.26835C0.867831 2.8555 0.9504 2.38761 1.28068 2.05734L2.10636 1.25917C2.16141 1.20413 2.2715 1.20413 2.32655 1.25917L4.03297 2.9656C4.08801 3.02064 4.08801 3.13073 4.03297 3.18578L3.01462 4.17661L3.15223 4.47936C3.17976 4.5344 3.70269 5.69037 4.99627 6.98395C6.28985 8.27752 7.44581 8.80046 7.47334 8.82798L7.77609 8.9656L8.79444 7.97477C8.84948 7.91973 8.95957 7.91973 9.01462 7.97477L10.7761 9.73624C10.8311 9.79129 10.8311 9.90138 10.7761 9.95642L9.9504 10.7546Z" fill="#326BA2"/>
</svg>
