<svg width="40" height="40" viewBox="0 0 40 40" fill="none" xmlns="http://www.w3.org/2000/svg">
<path d="M20 40C31.0457 40 40 31.0457 40 20C40 8.9543 31.0457 0 20 0C8.9543 0 0 8.9543 0 20C0 31.0457 8.9543 40 20 40Z" fill="#326BA2"/>
<path d="M25.384 12.614V9.04517C25.384 9.04517 21.7248 9 21.4764 9C19.8275 9 17.4333 10.8747 17.4333 13.0205C17.4333 15.4148 17.4333 16.8604 17.4333 16.8604H14V20.9261H17.3881V31H21.386V20.8809H24.9322L25.384 16.9055H21.4312C21.4312 16.9055 21.4312 14.4661 21.4312 13.9918C21.4312 13.2916 21.9507 12.614 22.7413 12.614C23.2834 12.5914 25.384 12.614 25.384 12.614Z" fill="white"/>
</svg>
