<svg width="44" height="40" viewBox="0 0 44 40" fill="none" xmlns="http://www.w3.org/2000/svg">
<path d="M1.57143 17.1429H42.4286C42.8453 17.1429 43.245 16.9923 43.5397 16.7244C43.8344 16.4565 44 16.0932 44 15.7143V12.8571C44 12.4783 43.8344 12.1149 43.5397 11.847C43.245 11.5791 42.8453 11.4286 42.4286 11.4286H1.57143C1.15466 11.4286 0.754961 11.5791 0.460261 11.847C0.165561 12.1149 0 12.4783 0 12.8571L0 15.7143C0 16.0932 0.165561 16.4565 0.460261 16.7244C0.754961 16.9923 1.15466 17.1429 1.57143 17.1429ZM42.4286 34.2857H1.57143C1.15466 34.2857 0.754961 34.4362 0.460261 34.7041C0.165561 34.972 0 35.3354 0 35.7143L0 38.5714C0 38.9503 0.165561 39.3137 0.460261 39.5816C0.754961 39.8495 1.15466 40 1.57143 40H42.4286C42.8453 40 43.245 39.8495 43.5397 39.5816C43.8344 39.3137 44 38.9503 44 38.5714V35.7143C44 35.3354 43.8344 34.972 43.5397 34.7041C43.245 34.4362 42.8453 34.2857 42.4286 34.2857ZM42.7399 3.48534e-07H16.9744C16.8089 -0.000117066 16.6449 0.0294328 16.492 0.0869598C16.3391 0.144487 16.2001 0.228862 16.0831 0.335258C15.966 0.441654 15.8732 0.567984 15.8099 0.70702C15.7467 0.846056 15.7142 0.995069 15.7143 1.14554V4.56875C15.7142 4.71922 15.7467 4.86823 15.8099 5.00727C15.8732 5.1463 15.966 5.27263 16.0831 5.37903C16.2001 5.48542 16.3391 5.5698 16.492 5.62733C16.6449 5.68485 16.8089 5.7144 16.9744 5.71429H42.7399C42.9054 5.7144 43.0693 5.68485 43.2223 5.62733C43.3752 5.5698 43.5142 5.48542 43.6312 5.37903C43.7482 5.27263 43.8411 5.1463 43.9043 5.00727C43.9676 4.86823 44.0001 4.71922 44 4.56875V1.14554C44.0001 0.995069 43.9676 0.846056 43.9043 0.70702C43.8411 0.567984 43.7482 0.441654 43.6312 0.335258C43.5142 0.228862 43.3752 0.144487 43.2223 0.0869598C43.0693 0.0294328 42.9054 -0.000117066 42.7399 3.48534e-07ZM42.7399 22.8571H16.9744C16.8089 22.857 16.6449 22.8866 16.492 22.9441C16.3391 23.0016 16.2001 23.086 16.0831 23.1924C15.966 23.2988 15.8732 23.4251 15.8099 23.5642C15.7467 23.7032 15.7142 23.8522 15.7143 24.0027V27.4259C15.7142 27.5764 15.7467 27.7254 15.8099 27.8644C15.8732 28.0034 15.966 28.1298 16.0831 28.2362C16.2001 28.3426 16.3391 28.4269 16.492 28.4845C16.6449 28.542 16.8089 28.5715 16.9744 28.5714H42.7399C42.9054 28.5715 43.0693 28.542 43.2223 28.4845C43.3752 28.4269 43.5142 28.3426 43.6312 28.2362C43.7482 28.1298 43.8411 28.0034 43.9043 27.8644C43.9676 27.7254 44.0001 27.5764 44 27.4259V24.0027C44.0001 23.8522 43.9676 23.7032 43.9043 23.5642C43.8411 23.4251 43.7482 23.2988 43.6312 23.1924C43.5142 23.086 43.3752 23.0016 43.2223 22.9441C43.0693 22.8866 42.9054 22.857 42.7399 22.8571Z" fill="#595959"/>
</svg>
