<svg width="40" height="40" viewBox="0 0 40 40" fill="none" xmlns="http://www.w3.org/2000/svg">
<path d="M21.6667 25.4167C21 26 20.5833 26.3333 20.5833 26.4167L20 26.9167L19.4167 26.4167C19.4167 26.4167 18.9167 26 18.3333 25.4167C16.5833 25.5 14.9167 25.75 13.6667 26.0833C12.5 26.4167 12 26.75 11.9167 26.9167C12.0833 27.0833 12.6667 27.5 14.25 27.9167C15.8333 28.3333 17.9167 28.5 20 28.5C22.1667 28.5 24.1667 28.25 25.75 27.9167C27.3333 27.5 27.9167 27.0833 28.0833 26.9167C27.9167 26.75 27.5 26.4167 26.3333 26.0833C25.0833 25.75 23.4167 25.5 21.6667 25.4167Z" fill="#326BA2"/>
<path d="M20 16.5C21.0833 16.5 21.9167 15.6667 21.9167 14.5833C21.9167 13.5 21.0833 12.6667 20 12.6667C18.9167 12.6667 18.0833 13.5 18.0833 14.5833C18.0833 15.6667 18.9167 16.5 20 16.5Z" fill="#326BA2"/>
<path d="M20 24.5C20.6667 23.9167 21.75 22.8333 22.9167 21.5833C25.0833 19.0833 26.25 16.8333 26.25 15.0833V14.6667C26.25 11.25 23.5 8.5 20.0833 8.5C16.6667 8.5 13.9167 11.25 13.9167 14.6667V15C13.9167 16.75 15.0833 19 17.25 21.5C18.25 22.8333 19.3333 23.9167 20 24.5ZM20 10.8333C22.0833 10.8333 23.75 12.5 23.75 14.5833C23.75 16.6667 22.0833 18.3333 20 18.3333C17.9167 18.3333 16.25 16.6667 16.25 14.5833C16.25 12.5 17.9167 10.8333 20 10.8333Z" fill="#326BA2"/>
<path d="M20 0C8.91667 0 0 8.91667 0 20C0 31.0833 8.91667 40 20 40C31.0833 40 40 31.0833 40 20C40 8.91667 31.0833 0 20 0ZM26.6667 29.5833C24.8333 30.0833 22.5 30.3333 20 30.3333C17.5 30.3333 15.1667 30.0833 13.3333 29.5833C11.0833 29 10 28.0833 10 26.9167C10 24.75 14 24 16.5833 23.6667C16.3333 23.4167 16 23.0833 15.75 22.75C13.25 19.8333 12 17.25 12 15V14.5833C12 10.1667 15.5833 6.5 20.0833 6.5C24.5 6.5 28.1667 10.0833 28.1667 14.5833V15C28.1667 17.25 26.9167 19.8333 24.4167 22.75C24.1667 23.0833 23.8333 23.4167 23.5833 23.6667C26.1667 23.9167 30.1667 24.75 30.1667 26.9167C30 28.0833 28.9167 29 26.6667 29.5833Z" fill="#326BA2"/>
</svg>
