<svg width="40" height="40" viewBox="0 0 40 40" fill="none" xmlns="http://www.w3.org/2000/svg">
<path d="M25.3333 23.3334C25.25 23.25 25.0833 23.25 24.9167 23.3334L23.0833 25.0834L22.5833 24.8333C22.5 24.8333 20.5 23.9167 18.1667 21.5834C15.8333 19.25 14.9167 17.25 14.9167 17.1667L14.6667 16.6667L16.4167 14.9167C16.5 14.8334 16.5 14.6667 16.4167 14.5L13.4167 11.5C13.3333 11.4167 13.1667 11.4167 13 11.5L11.5833 12.9167C11 13.5 10.8333 14.3334 11.25 15.0834C12.25 17.0834 14 20 17 23C20 26 23 27.75 24.9167 28.75C25.6667 29.0834 26.5 28.9167 27.0833 28.4167L28.5 27C28.5833 26.9167 28.5833 26.75 28.5 26.5834L25.3333 23.3334Z" fill="#326BA2"/>
<path d="M20 0C8.91667 0 0 8.91667 0 20C0 31.0833 8.91667 40 20 40C31.0833 40 40 31.0833 40 20C40 8.91667 31.0833 0 20 0ZM30.3333 27.5L28.25 29.5833C27.5833 30.25 26.6667 30.6667 25.6667 30.6667C25.1667 30.6667 24.5833 30.5833 24.0833 30.3333C22 29.3333 18.8333 27.4167 15.6667 24.25C12.5 21.0833 10.6667 17.9167 9.58333 15.8333C8.91667 14.5 9.16667 12.8333 10.25 11.75L12.3333 9.66667C12.75 9.25 13.4167 9.25 13.8333 9.66667L18.1667 14C18.5833 14.4167 18.5833 15.0833 18.1667 15.5L16.5833 17.0833C17 17.75 17.8333 19.0833 19.25 20.5C20.6667 21.9167 22 22.75 22.6667 23.1667L24.25 21.5833C24.6667 21.1667 25.3333 21.1667 25.75 21.5833L30.1667 26C30.75 26.3333 30.75 27.0833 30.3333 27.5Z" fill="#326BA2"/>
</svg>
