<svg width="20" height="20" viewBox="0 0 20 20" fill="none" xmlns="http://www.w3.org/2000/svg">
<path d="M10 20C15.5228 20 20 15.5228 20 10C20 4.47715 15.5228 0 10 0C4.47715 0 0 4.47715 0 10C0 15.5228 4.47715 20 10 20Z" fill="#326BA2"/>
<path fill-rule="evenodd" clip-rule="evenodd" d="M16.3747 8.58333L6.79134 5.08333C6.58301 5 6.37467 5 6.20801 5C6.04134 5 5.87467 5.08333 5.79134 5.20833C5.70801 5.29167 5.70801 5.41667 5.70801 5.58333C5.70801 5.75 5.74967 5.875 5.83301 6.08333C6.91634 9 8.12467 12.9167 9.37467 15.625L9.70801 15.5417C9.91634 14.2917 10.1247 12.9167 10.208 11.7083C10.208 11.0833 10.458 10.5417 10.8747 10.125C11.2913 9.70833 11.833 9.45833 12.458 9.45833L16.2913 8.95833H16.333L16.3747 8.58333Z" stroke="white" stroke-miterlimit="10" stroke-linecap="round" stroke-linejoin="round"/>
</svg>
